<svg width="25" height="25" viewBox="0 0 25 25" fill="none" xmlns="http://www.w3.org/2000/svg">
<path d="M24.2666 9.94667H23.3V9.89687H12.5V14.6969H19.2818C18.2924 17.4911 15.6338 19.4969 12.5 19.4969C8.5238 19.4969 5.3 16.2731 5.3 12.2969C5.3 8.32067 8.5238 5.09687 12.5 5.09687C14.3354 5.09687 16.0052 5.78927 17.2766 6.92027L20.6708 3.52607C18.5276 1.52867 15.6608 0.296875 12.5 0.296875C5.873 0.296875 0.5 5.66987 0.5 12.2969C0.5 18.9239 5.873 24.2969 12.5 24.2969C19.127 24.2969 24.5 18.9239 24.5 12.2969C24.5 11.4923 24.4172 10.7069 24.2666 9.94667Z" fill="#FFC107"/>
<path d="M1.88379 6.71147L5.82639 9.60287C6.89319 6.96167 9.47679 5.09687 12.5002 5.09687C14.3356 5.09687 16.0054 5.78927 17.2768 6.92027L20.671 3.52607C18.5278 1.52867 15.661 0.296875 12.5002 0.296875C7.89099 0.296875 3.89379 2.89907 1.88379 6.71147Z" fill="#FF3D00"/>
<path d="M12.5004 24.2971C15.6 24.2971 18.4164 23.1109 20.5458 21.1819L16.8318 18.0391C15.5865 18.9861 14.0649 19.4983 12.5004 19.4971C9.37918 19.4971 6.72898 17.5069 5.73058 14.7295L1.81738 17.7445C3.80338 21.6307 7.83658 24.2971 12.5004 24.2971Z" fill="#4CAF50"/>
<path d="M24.2666 9.94726H23.3V9.89746H12.5V14.6975H19.2818C18.8085 16.0273 17.956 17.1894 16.8296 18.0401L16.8314 18.0389L20.5454 21.1817C20.2826 21.4205 24.5 18.2975 24.5 12.2975C24.5 11.4929 24.4172 10.7075 24.2666 9.94726Z" fill="#1976D2"/>
</svg>
