<svg width="24" height="24" viewBox="0 0 24 24" fill="none" xmlns="http://www.w3.org/2000/svg">
<g clip-path="url(#clip0_438_287)">
<path d="M18.0004 19.0001C18.1982 19.0001 18.3915 18.9414 18.5559 18.8315C18.7203 18.7217 18.8484 18.5655 18.9241 18.3828C18.9998 18.2001 19.0196 17.9991 18.981 17.8051C18.9424 17.6112 18.8472 17.433 18.7074 17.2931L12.5354 11.1221C11.5978 10.1848 10.3262 9.6582 9.00041 9.6582C7.67459 9.6582 6.40305 10.1848 5.46541 11.1221L3.29341 13.2931C3.11125 13.4817 3.01045 13.7343 3.01273 13.9965C3.01501 14.2587 3.12018 14.5095 3.30559 14.695C3.491 14.8804 3.74181 14.9855 4.00401 14.9878C4.2662 14.9901 4.5188 14.8893 4.70741 14.7071L6.87941 12.5361C7.45063 11.9903 8.21031 11.6857 9.00041 11.6857C9.79051 11.6857 10.5502 11.9903 11.1214 12.5361L17.2934 18.7071C17.4809 18.8947 17.7352 19.0001 18.0004 19.0001Z" fill="white"/>
<path d="M16 10.5C16.6922 10.5 17.3689 10.2947 17.9445 9.91015C18.5201 9.52556 18.9687 8.97894 19.2336 8.33939C19.4985 7.69985 19.5678 6.99612 19.4327 6.31719C19.2977 5.63825 18.9644 5.01461 18.4749 4.52513C17.9854 4.03564 17.3617 3.7023 16.6828 3.56725C16.0039 3.4322 15.3001 3.50152 14.6606 3.76642C14.0211 4.03133 13.4744 4.47993 13.0899 5.05551C12.7053 5.63108 12.5 6.30777 12.5 7C12.5 7.92826 12.8687 8.8185 13.5251 9.47488C14.1815 10.1313 15.0717 10.5 16 10.5ZM16 5.5C16.2967 5.5 16.5867 5.58798 16.8334 5.7528C17.08 5.91762 17.2723 6.15189 17.3858 6.42598C17.4994 6.70007 17.5291 7.00167 17.4712 7.29264C17.4133 7.58361 17.2704 7.85088 17.0607 8.06066C16.8509 8.27044 16.5836 8.4133 16.2926 8.47118C16.0017 8.52906 15.7001 8.49935 15.426 8.38582C15.1519 8.27229 14.9176 8.08003 14.7528 7.83336C14.588 7.58668 14.5 7.29667 14.5 7C14.5 6.60218 14.658 6.22065 14.9393 5.93934C15.2206 5.65804 15.6022 5.5 16 5.5Z" fill="white"/>
<path d="M23 16C22.7348 16 22.4804 16.1054 22.2929 16.2929C22.1053 16.4804 22 16.7348 22 17V19C22 19.7956 21.6839 20.5587 21.1213 21.1213C20.5587 21.6839 19.7956 22 19 22H17C16.7348 22 16.4804 22.1053 16.2929 22.2929C16.1054 22.4804 16 22.7348 16 23C16 23.2652 16.1054 23.5196 16.2929 23.7071C16.4804 23.8946 16.7348 24 17 24H19C20.3256 23.9984 21.5964 23.4711 22.5338 22.5338C23.4711 21.5964 23.9984 20.3256 24 19V17C24 16.7348 23.8946 16.4804 23.7071 16.2929C23.5196 16.1054 23.2652 16 23 16Z" fill="white"/>
<path d="M1 8C1.26522 8 1.51957 7.89464 1.70711 7.70711C1.89464 7.51957 2 7.26522 2 7V5C2 4.20435 2.31607 3.44129 2.87868 2.87868C3.44129 2.31607 4.20435 2 5 2H7C7.26522 2 7.51957 1.89464 7.70711 1.70711C7.89464 1.51957 8 1.26522 8 1C8 0.734784 7.89464 0.48043 7.70711 0.292893C7.51957 0.105357 7.26522 0 7 0L5 0C3.67441 0.00158786 2.40356 0.528882 1.46622 1.46622C0.528882 2.40356 0.00158786 3.67441 0 5L0 7C0 7.26522 0.105357 7.51957 0.292893 7.70711C0.48043 7.89464 0.734784 8 1 8Z" fill="white"/>
<path d="M7 22H5C4.20435 22 3.44129 21.6839 2.87868 21.1213C2.31607 20.5587 2 19.7956 2 19V17C2 16.7348 1.89464 16.4804 1.70711 16.2929C1.51957 16.1054 1.26522 16 1 16C0.734784 16 0.48043 16.1054 0.292893 16.2929C0.105357 16.4804 0 16.7348 0 17L0 19C0.00158786 20.3256 0.528882 21.5964 1.46622 22.5338C2.40356 23.4711 3.67441 23.9984 5 24H7C7.26522 24 7.51957 23.8946 7.70711 23.7071C7.89464 23.5196 8 23.2652 8 23C8 22.7348 7.89464 22.4804 7.70711 22.2929C7.51957 22.1053 7.26522 22 7 22Z" fill="white"/>
<path d="M19 0H17C16.7348 0 16.4804 0.105357 16.2929 0.292893C16.1054 0.48043 16 0.734784 16 1C16 1.26522 16.1054 1.51957 16.2929 1.70711C16.4804 1.89464 16.7348 2 17 2H19C19.7956 2 20.5587 2.31607 21.1213 2.87868C21.6839 3.44129 22 4.20435 22 5V7C22 7.26522 22.1053 7.51957 22.2929 7.70711C22.4804 7.89464 22.7348 8 23 8C23.2652 8 23.5196 7.89464 23.7071 7.70711C23.8946 7.51957 24 7.26522 24 7V5C23.9984 3.67441 23.4711 2.40356 22.5338 1.46622C21.5964 0.528882 20.3256 0.00158786 19 0V0Z" fill="white"/>
</g>
<defs>
<clipPath id="clip0_438_287">
<rect width="24" height="24" fill="white"/>
</clipPath>
</defs>
</svg>
