<svg width="57" height="44" viewBox="0 0 57 44" fill="none" xmlns="http://www.w3.org/2000/svg">
<rect x="0.5" y="0.5" width="56" height="43" rx="5.5" stroke="url(#paint0_linear_115_411)"/>
<path d="M40.2666 19.6498H39.3V19.6H28.5V24.4H35.2818C34.2924 27.1942 31.6338 29.2 28.5 29.2C24.5238 29.2 21.3 25.9762 21.3 22C21.3 18.0238 24.5238 14.8 28.5 14.8C30.3354 14.8 32.0052 15.4924 33.2766 16.6234L36.6708 13.2292C34.5276 11.2318 31.6608 10 28.5 10C21.873 10 16.5 15.373 16.5 22C16.5 28.627 21.873 34 28.5 34C35.127 34 40.5 28.627 40.5 22C40.5 21.1954 40.4172 20.41 40.2666 19.6498Z" fill="#FFC107"/>
<path d="M17.8838 16.4146L21.8264 19.306C22.8932 16.6648 25.4768 14.8 28.5002 14.8C30.3356 14.8 32.0054 15.4924 33.2768 16.6234L36.671 13.2292C34.5278 11.2318 31.661 10 28.5002 10C23.891 10 19.8938 12.6022 17.8838 16.4146Z" fill="#FF3D00"/>
<path d="M28.5004 34.0002C31.6 34.0002 34.4164 32.814 36.5458 30.885L32.8318 27.7422C31.5865 28.6892 30.0649 29.2015 28.5004 29.2002C25.3792 29.2002 22.729 27.21 21.7306 24.4326L17.8174 27.4476C19.8034 31.3338 23.8366 34.0002 28.5004 34.0002Z" fill="#4CAF50"/>
<path d="M40.2666 19.6504H39.3V19.6006H28.5V24.4006H35.2818C34.8085 25.7304 33.956 26.8925 32.8296 27.7432L32.8314 27.742L36.5454 30.8848C36.2826 31.1236 40.5 28.0006 40.5 22.0006C40.5 21.196 40.4172 20.4106 40.2666 19.6504Z" fill="#1976D2"/>
<defs>
<linearGradient id="paint0_linear_115_411" x1="3" y1="6.49976" x2="51.5" y2="40.9998" gradientUnits="userSpaceOnUse">
<stop stop-color="#FD06D5"/>
<stop offset="0.970627" stop-color="#FDFDFD"/>
</linearGradient>
</defs>
</svg>
