<svg width="57" height="44" viewBox="0 0 57 44" fill="none" xmlns="http://www.w3.org/2000/svg">
<rect x="0.5" y="0.5" width="56" height="43" rx="5.5" stroke="url(#paint0_linear_115_412)"/>
<path d="M40.5 22C40.5 15.3726 35.1274 10 28.5 10C21.8726 10 16.5 15.3725 16.5 22C16.5 27.9895 20.8882 32.954 26.625 33.8542V25.4688H23.5781V22H26.625V19.3563C26.625 16.3488 28.4166 14.6875 31.1575 14.6875C32.4705 14.6875 33.8438 14.9219 33.8438 14.9219V17.875H32.3306C30.8398 17.875 30.375 18.8 30.375 19.7491V22H33.7031L33.1711 25.4688H30.375V33.8542C36.1117 32.954 40.5 27.9896 40.5 22Z" fill="#1877F2"/>
<path d="M33.1711 25.4688L33.7031 22H30.375V19.7491C30.375 18.7999 30.8399 17.875 32.3306 17.875H33.8438V14.9219C33.8438 14.9219 32.4705 14.6875 31.1575 14.6875C28.4166 14.6875 26.625 16.3488 26.625 19.3563V22H23.5781V25.4688H26.625V33.8542C27.2453 33.9514 27.8722 34.0002 28.5 34C29.1278 34.0002 29.7547 33.9514 30.375 33.8542V25.4688H33.1711Z" fill="white"/>
<defs>
<linearGradient id="paint0_linear_115_412" x1="6.56604e-07" y1="0.296874" x2="50" y2="41.2969" gradientUnits="userSpaceOnUse">
<stop stop-color="#FD06D5"/>
<stop offset="1" stop-color="#FFFCFF"/>
</linearGradient>
</defs>
</svg>
