<svg width="24" height="24" viewBox="0 0 24 24" fill="none" xmlns="http://www.w3.org/2000/svg">
<path d="M22.2075 5.02966C21.3112 3.5359 19.7178 2.54004 17.9253 2.54004H5.97511C4.18256 2.54004 2.58923 3.5359 1.69294 5.02966C0.597516 7.02138 0 9.21227 0 11.5027C0 16.9799 2.19089 21.4612 4.97925 21.4612C6.47302 21.4612 7.66805 20.067 8.5643 17.1791C8.66386 16.7807 9.0622 16.482 9.56016 16.482H14.4398C14.8382 16.482 15.2365 16.7807 15.4357 17.1791C16.332 20.067 17.527 21.4612 19.0208 21.4612C21.8091 21.4612 24 16.9799 24 11.5027C23.9004 9.21227 23.3029 7.02138 22.2075 5.02966ZM18.9211 19.4695C18.6224 19.4695 17.9253 18.6728 17.2282 16.5815C16.8299 15.2869 15.6348 14.4903 14.3402 14.4903H9.56016C8.26556 14.4903 7.07053 15.3865 6.67219 16.5815C5.97511 18.6728 5.27798 19.4695 4.97925 19.4695C3.98339 19.4695 1.99172 16.3824 1.99172 11.5027C1.99172 9.61062 2.48962 7.71851 3.38592 6.02557C3.98344 5.12932 4.9793 4.5318 5.97516 4.5318H17.9254C18.9212 4.5318 19.9171 5.12932 20.5146 6.02557C21.4109 7.71851 21.9088 9.61062 21.9088 11.5027C21.9087 16.3824 19.917 19.4695 18.9211 19.4695Z" fill="white"/>
<path d="M8.99993 8.99996H7.99994V7.99998C7.99994 7.39998 7.59996 7 6.99996 7C6.39996 7 5.99997 7.39998 5.99997 7.99998V8.99996H4.99999C4.39998 8.99996 4 9.39995 4 9.99995C4 10.5999 4.39998 10.9999 4.99999 10.9999H5.99992V12C5.99992 12.6 6.39991 12.9999 6.99991 12.9999C7.59991 12.9999 7.9999 12.6 7.9999 12V11H8.99993C9.59993 11 9.99991 10.6 9.99991 9.99999C9.99991 9.39995 9.59993 8.99996 8.99993 8.99996Z" fill="white"/>
<path d="M18.5 10C19.3284 10 20 9.32843 20 8.5C20 7.67157 19.3284 7 18.5 7C17.6716 7 17 7.67157 17 8.5C17 9.32843 17.6716 10 18.5 10Z" fill="white"/>
<path d="M15.5 13C16.3284 13 17 12.3284 17 11.5C17 10.6716 16.3284 10 15.5 10C14.6716 10 14 10.6716 14 11.5C14 12.3284 14.6716 13 15.5 13Z" fill="white"/>
</svg>
