<svg width="20" height="20" viewBox="0 0 20 20" fill="none" xmlns="http://www.w3.org/2000/svg">
<g clip-path="url(#clip0_60_922)">
<path d="M19.1477 7.69568C17.8379 5.66278 14.8853 2.26846 9.83477 2.37803C4.78423 2.4876 1.98159 6.00677 0.761203 8.09456C0.383842 8.73559 0.192501 9.46907 0.208635 10.2127C0.224769 10.9564 0.447738 11.6809 0.852545 12.305C2.16232 14.3379 5.11495 17.7322 10.1655 17.6226C15.216 17.5131 18.0187 13.9939 19.239 11.9061C19.6164 11.2651 19.8078 10.5316 19.7916 9.78791C19.7755 9.04423 19.5525 8.31974 19.1477 7.69568ZM17.8298 11.0823C16.7817 12.8726 14.387 15.899 10.1301 15.9913C5.87319 16.0837 3.34949 13.164 2.22471 11.4208C1.9842 11.0499 1.85173 10.6193 1.84214 10.1773C1.83256 9.73533 1.94623 9.29941 2.17042 8.91838C3.21855 7.12811 5.61325 4.10169 9.87016 4.00934C14.1271 3.91699 16.6507 6.83344 17.7755 8.57984C18.016 8.95078 18.1485 9.38137 18.1581 9.82335C18.1677 10.2653 18.054 10.7013 17.8298 11.0823Z" fill="#9D9D9D"/>
<path d="M9.91132 5.92169C9.10471 5.93919 8.32141 6.19548 7.66046 6.65816C6.99951 7.12083 6.49061 7.76911 6.1981 8.52102C5.90559 9.27292 5.84262 10.0947 6.01714 10.8824C6.19166 11.6701 6.59585 12.3883 7.17858 12.9463C7.76131 13.5043 8.49641 13.8769 9.29094 14.0171C10.0855 14.1573 10.9037 14.0588 11.6422 13.7339C12.3807 13.4091 13.0063 12.8726 13.4399 12.1922C13.8735 11.5118 14.0956 10.7181 14.0781 9.91149C14.0533 8.83029 13.6007 7.80305 12.8196 7.05509C12.0385 6.30713 10.9926 5.89953 9.91132 5.92169ZM10.0529 12.4469C9.56891 12.4574 9.09271 12.3242 8.68447 12.064C8.27624 11.8039 7.95431 11.4285 7.75941 10.9854C7.5645 10.5423 7.50537 10.0514 7.58949 9.57465C7.67361 9.09794 7.8972 8.65688 8.23199 8.30724C8.56678 7.9576 8.99773 7.71509 9.47035 7.61037C9.94297 7.50566 10.436 7.54344 10.8872 7.71895C11.3383 7.89445 11.7273 8.1998 12.0049 8.59637C12.2825 8.99293 12.4363 9.46292 12.4468 9.94688C12.4608 10.5959 12.2165 11.2238 11.7676 11.6927C11.3187 12.1615 10.7019 12.4329 10.0529 12.4469Z" fill="#9D9D9D"/>
</g>
<defs>
<clipPath id="clip0_60_922">
<rect width="19" height="19" fill="white" transform="translate(0 0.424697) scale(1.03054) rotate(-1.24279)"/>
</clipPath>
</defs>
</svg>
